<mxfile host="app.diagrams.net" modified="2022-11-24T21:55:27.625Z" agent="5.0 (Windows NT 10.0; Win64; x64) AppleWebKit/537.36 (KHTML, like Gecko) Chrome/107.0.0.0 Safari/537.36" etag="SjiFUi3LidL-OE40Jtuw" version="20.6.0" type="github">
  <diagram name="Page-1" id="c4acf3e9-155e-7222-9cf6-157b1a14988f">
    <mxGraphModel dx="2746" dy="1016" grid="1" gridSize="10" guides="1" tooltips="1" connect="1" arrows="1" fold="1" page="1" pageScale="1" pageWidth="850" pageHeight="1100" background="none" math="0" shadow="0">
      <root>
        <mxCell id="0" />
        <mxCell id="1" parent="0" />
        <mxCell id="2l-dpUpol_1fAEb8tBQ4-83" style="edgeStyle=orthogonalEdgeStyle;rounded=0;orthogonalLoop=1;jettySize=auto;html=1;exitX=0.75;exitY=0;exitDx=0;exitDy=0;entryX=0.5;entryY=1;entryDx=0;entryDy=0;entryPerimeter=0;endArrow=classic;endFill=1;" parent="1" source="2l-dpUpol_1fAEb8tBQ4-2" target="2l-dpUpol_1fAEb8tBQ4-80" edge="1">
          <mxGeometry relative="1" as="geometry">
            <Array as="points">
              <mxPoint x="-10" y="600" />
              <mxPoint x="-10" y="400" />
              <mxPoint x="-195" y="400" />
            </Array>
          </mxGeometry>
        </mxCell>
        <mxCell id="2l-dpUpol_1fAEb8tBQ4-2" value="AddressBook" style="swimlane;fontStyle=1;align=center;verticalAlign=top;childLayout=stackLayout;horizontal=1;startSize=26;horizontalStack=0;resizeParent=1;resizeParentMax=0;resizeLast=0;collapsible=1;marginBottom=0;" parent="1" vertex="1">
          <mxGeometry x="-190" y="600" width="160" height="210" as="geometry" />
        </mxCell>
        <mxCell id="2l-dpUpol_1fAEb8tBQ4-3" value="+ data" style="text;strokeColor=none;fillColor=none;align=left;verticalAlign=top;spacingLeft=4;spacingRight=4;overflow=hidden;rotatable=0;points=[[0,0.5],[1,0.5]];portConstraint=eastwest;" parent="2l-dpUpol_1fAEb8tBQ4-2" vertex="1">
          <mxGeometry y="26" width="160" height="24" as="geometry" />
        </mxCell>
        <mxCell id="2l-dpUpol_1fAEb8tBQ4-4" value="" style="line;strokeWidth=1;fillColor=none;align=left;verticalAlign=middle;spacingTop=-1;spacingLeft=3;spacingRight=3;rotatable=0;labelPosition=right;points=[];portConstraint=eastwest;strokeColor=inherit;" parent="2l-dpUpol_1fAEb8tBQ4-2" vertex="1">
          <mxGeometry y="50" width="160" height="8" as="geometry" />
        </mxCell>
        <mxCell id="2l-dpUpol_1fAEb8tBQ4-5" value="- __init__()&#xa;+ add_record()&#xa;+ get_record()&#xa;+ remove_record()&#xa;+ get_all_record()&#xa;+ search()&#xa;+ iterator()&#xa;+ get_birthdays_in_range()&#xa;+ save_contacts_to_file()&#xa;+ load_contacts_from_file()" style="text;strokeColor=none;fillColor=none;align=left;verticalAlign=top;spacingLeft=4;spacingRight=4;overflow=hidden;rotatable=0;points=[[0,0.5],[1,0.5]];portConstraint=eastwest;" parent="2l-dpUpol_1fAEb8tBQ4-2" vertex="1">
          <mxGeometry y="58" width="160" height="152" as="geometry" />
        </mxCell>
        <mxCell id="2l-dpUpol_1fAEb8tBQ4-6" value="UserDict" style="swimlane;fontStyle=1;align=center;verticalAlign=top;childLayout=stackLayout;horizontal=1;startSize=26;horizontalStack=0;resizeParent=1;resizeParentMax=0;resizeLast=0;collapsible=1;marginBottom=0;" parent="1" vertex="1">
          <mxGeometry x="-190" y="470" width="160" height="34" as="geometry" />
        </mxCell>
        <mxCell id="2l-dpUpol_1fAEb8tBQ4-8" value="" style="line;strokeWidth=1;fillColor=none;align=left;verticalAlign=middle;spacingTop=-1;spacingLeft=3;spacingRight=3;rotatable=0;labelPosition=right;points=[];portConstraint=eastwest;strokeColor=inherit;" parent="2l-dpUpol_1fAEb8tBQ4-6" vertex="1">
          <mxGeometry y="26" width="160" height="8" as="geometry" />
        </mxCell>
        <mxCell id="2l-dpUpol_1fAEb8tBQ4-13" value="" style="endArrow=block;endSize=16;endFill=0;html=1;rounded=0;exitX=0.5;exitY=0;exitDx=0;exitDy=0;entryX=0.5;entryY=1;entryDx=0;entryDy=0;" parent="1" source="2l-dpUpol_1fAEb8tBQ4-2" target="2l-dpUpol_1fAEb8tBQ4-6" edge="1">
          <mxGeometry width="160" relative="1" as="geometry">
            <mxPoint x="70" y="590" as="sourcePoint" />
            <mxPoint x="230" y="590" as="targetPoint" />
          </mxGeometry>
        </mxCell>
        <mxCell id="2l-dpUpol_1fAEb8tBQ4-14" value="Record" style="swimlane;fontStyle=1;align=center;verticalAlign=top;childLayout=stackLayout;horizontal=1;startSize=26;horizontalStack=0;resizeParent=1;resizeParentMax=0;resizeLast=0;collapsible=1;marginBottom=0;" parent="1" vertex="1">
          <mxGeometry x="30" y="550" width="200" height="260" as="geometry" />
        </mxCell>
        <mxCell id="2l-dpUpol_1fAEb8tBQ4-15" value="+ name&#xa;+ phones&#xa;+ birthday&#xa;+ email&#xa;+ address" style="text;strokeColor=none;fillColor=none;align=left;verticalAlign=top;spacingLeft=4;spacingRight=4;overflow=hidden;rotatable=0;points=[[0,0.5],[1,0.5]];portConstraint=eastwest;" parent="2l-dpUpol_1fAEb8tBQ4-14" vertex="1">
          <mxGeometry y="26" width="200" height="84" as="geometry" />
        </mxCell>
        <mxCell id="2l-dpUpol_1fAEb8tBQ4-16" value="" style="line;strokeWidth=1;fillColor=none;align=left;verticalAlign=middle;spacingTop=-1;spacingLeft=3;spacingRight=3;rotatable=0;labelPosition=right;points=[];portConstraint=eastwest;strokeColor=inherit;" parent="2l-dpUpol_1fAEb8tBQ4-14" vertex="1">
          <mxGeometry y="110" width="200" height="8" as="geometry" />
        </mxCell>
        <mxCell id="2l-dpUpol_1fAEb8tBQ4-17" value="- __init__()&#xa;+ get_info()&#xa;+ add_phone()&#xa;+ delete_phone()&#xa;+ change_phones()&#xa;+ add_birthday()&#xa;+ get_days_to_next_birthday()&#xa;+ add_address()&#xa;+ add_email()&#xa;" style="text;strokeColor=none;fillColor=none;align=left;verticalAlign=top;spacingLeft=4;spacingRight=4;overflow=hidden;rotatable=0;points=[[0,0.5],[1,0.5]];portConstraint=eastwest;" parent="2l-dpUpol_1fAEb8tBQ4-14" vertex="1">
          <mxGeometry y="118" width="200" height="142" as="geometry" />
        </mxCell>
        <mxCell id="2l-dpUpol_1fAEb8tBQ4-33" style="edgeStyle=orthogonalEdgeStyle;rounded=0;orthogonalLoop=1;jettySize=auto;html=1;exitX=0;exitY=0.25;exitDx=0;exitDy=0;" parent="1" source="2l-dpUpol_1fAEb8tBQ4-24" target="2l-dpUpol_1fAEb8tBQ4-15" edge="1">
          <mxGeometry relative="1" as="geometry" />
        </mxCell>
        <mxCell id="2l-dpUpol_1fAEb8tBQ4-65" style="edgeStyle=orthogonalEdgeStyle;rounded=0;orthogonalLoop=1;jettySize=auto;html=1;exitX=1;exitY=0.25;exitDx=0;exitDy=0;entryX=1;entryY=0.5;entryDx=0;entryDy=0;endArrow=block;endFill=0;" parent="1" source="2l-dpUpol_1fAEb8tBQ4-24" target="2l-dpUpol_1fAEb8tBQ4-62" edge="1">
          <mxGeometry relative="1" as="geometry" />
        </mxCell>
        <mxCell id="2l-dpUpol_1fAEb8tBQ4-24" value="Birthday" style="swimlane;fontStyle=1;align=center;verticalAlign=top;childLayout=stackLayout;horizontal=1;startSize=26;horizontalStack=0;resizeParent=1;resizeParentMax=0;resizeLast=0;collapsible=1;marginBottom=0;" parent="1" vertex="1">
          <mxGeometry x="320" y="514" width="160" height="86" as="geometry" />
        </mxCell>
        <mxCell id="2l-dpUpol_1fAEb8tBQ4-25" value="- _value" style="text;strokeColor=none;fillColor=none;align=left;verticalAlign=top;spacingLeft=4;spacingRight=4;overflow=hidden;rotatable=0;points=[[0,0.5],[1,0.5]];portConstraint=eastwest;" parent="2l-dpUpol_1fAEb8tBQ4-24" vertex="1">
          <mxGeometry y="26" width="160" height="26" as="geometry" />
        </mxCell>
        <mxCell id="2l-dpUpol_1fAEb8tBQ4-26" value="" style="line;strokeWidth=1;fillColor=none;align=left;verticalAlign=middle;spacingTop=-1;spacingLeft=3;spacingRight=3;rotatable=0;labelPosition=right;points=[];portConstraint=eastwest;strokeColor=inherit;" parent="2l-dpUpol_1fAEb8tBQ4-24" vertex="1">
          <mxGeometry y="52" width="160" height="8" as="geometry" />
        </mxCell>
        <mxCell id="2l-dpUpol_1fAEb8tBQ4-27" value="+ value()" style="text;strokeColor=none;fillColor=none;align=left;verticalAlign=top;spacingLeft=4;spacingRight=4;overflow=hidden;rotatable=0;points=[[0,0.5],[1,0.5]];portConstraint=eastwest;" parent="2l-dpUpol_1fAEb8tBQ4-24" vertex="1">
          <mxGeometry y="60" width="160" height="26" as="geometry" />
        </mxCell>
        <mxCell id="2l-dpUpol_1fAEb8tBQ4-38" style="edgeStyle=orthogonalEdgeStyle;rounded=0;orthogonalLoop=1;jettySize=auto;html=1;exitX=0;exitY=0.25;exitDx=0;exitDy=0;entryX=1.005;entryY=0.845;entryDx=0;entryDy=0;entryPerimeter=0;" parent="1" source="2l-dpUpol_1fAEb8tBQ4-34" target="2l-dpUpol_1fAEb8tBQ4-15" edge="1">
          <mxGeometry relative="1" as="geometry" />
        </mxCell>
        <mxCell id="2l-dpUpol_1fAEb8tBQ4-69" style="edgeStyle=orthogonalEdgeStyle;rounded=0;orthogonalLoop=1;jettySize=auto;html=1;exitX=1;exitY=0.25;exitDx=0;exitDy=0;entryX=1;entryY=0.5;entryDx=0;entryDy=0;endArrow=block;endFill=0;" parent="1" source="2l-dpUpol_1fAEb8tBQ4-34" target="2l-dpUpol_1fAEb8tBQ4-62" edge="1">
          <mxGeometry relative="1" as="geometry" />
        </mxCell>
        <mxCell id="2l-dpUpol_1fAEb8tBQ4-34" value="Address" style="swimlane;fontStyle=1;align=center;verticalAlign=top;childLayout=stackLayout;horizontal=1;startSize=26;horizontalStack=0;resizeParent=1;resizeParentMax=0;resizeLast=0;collapsible=1;marginBottom=0;" parent="1" vertex="1">
          <mxGeometry x="320" y="710" width="160" height="86" as="geometry" />
        </mxCell>
        <mxCell id="2l-dpUpol_1fAEb8tBQ4-35" value="- _value" style="text;strokeColor=none;fillColor=none;align=left;verticalAlign=top;spacingLeft=4;spacingRight=4;overflow=hidden;rotatable=0;points=[[0,0.5],[1,0.5]];portConstraint=eastwest;" parent="2l-dpUpol_1fAEb8tBQ4-34" vertex="1">
          <mxGeometry y="26" width="160" height="26" as="geometry" />
        </mxCell>
        <mxCell id="2l-dpUpol_1fAEb8tBQ4-36" value="" style="line;strokeWidth=1;fillColor=none;align=left;verticalAlign=middle;spacingTop=-1;spacingLeft=3;spacingRight=3;rotatable=0;labelPosition=right;points=[];portConstraint=eastwest;strokeColor=inherit;" parent="2l-dpUpol_1fAEb8tBQ4-34" vertex="1">
          <mxGeometry y="52" width="160" height="8" as="geometry" />
        </mxCell>
        <mxCell id="2l-dpUpol_1fAEb8tBQ4-37" value="+ value()" style="text;strokeColor=none;fillColor=none;align=left;verticalAlign=top;spacingLeft=4;spacingRight=4;overflow=hidden;rotatable=0;points=[[0,0.5],[1,0.5]];portConstraint=eastwest;" parent="2l-dpUpol_1fAEb8tBQ4-34" vertex="1">
          <mxGeometry y="60" width="160" height="26" as="geometry" />
        </mxCell>
        <mxCell id="2l-dpUpol_1fAEb8tBQ4-43" style="edgeStyle=orthogonalEdgeStyle;rounded=0;orthogonalLoop=1;jettySize=auto;html=1;exitX=0;exitY=0.25;exitDx=0;exitDy=0;entryX=1.01;entryY=0.667;entryDx=0;entryDy=0;entryPerimeter=0;" parent="1" source="2l-dpUpol_1fAEb8tBQ4-39" target="2l-dpUpol_1fAEb8tBQ4-15" edge="1">
          <mxGeometry relative="1" as="geometry" />
        </mxCell>
        <mxCell id="2l-dpUpol_1fAEb8tBQ4-68" style="edgeStyle=orthogonalEdgeStyle;rounded=0;orthogonalLoop=1;jettySize=auto;html=1;exitX=1;exitY=0.25;exitDx=0;exitDy=0;entryX=1;entryY=0.5;entryDx=0;entryDy=0;endArrow=block;endFill=0;" parent="1" source="2l-dpUpol_1fAEb8tBQ4-39" target="2l-dpUpol_1fAEb8tBQ4-62" edge="1">
          <mxGeometry relative="1" as="geometry" />
        </mxCell>
        <mxCell id="2l-dpUpol_1fAEb8tBQ4-39" value="Email" style="swimlane;fontStyle=1;align=center;verticalAlign=top;childLayout=stackLayout;horizontal=1;startSize=26;horizontalStack=0;resizeParent=1;resizeParentMax=0;resizeLast=0;collapsible=1;marginBottom=0;" parent="1" vertex="1">
          <mxGeometry x="320" y="610" width="160" height="86" as="geometry" />
        </mxCell>
        <mxCell id="2l-dpUpol_1fAEb8tBQ4-40" value="- _value" style="text;strokeColor=none;fillColor=none;align=left;verticalAlign=top;spacingLeft=4;spacingRight=4;overflow=hidden;rotatable=0;points=[[0,0.5],[1,0.5]];portConstraint=eastwest;" parent="2l-dpUpol_1fAEb8tBQ4-39" vertex="1">
          <mxGeometry y="26" width="160" height="26" as="geometry" />
        </mxCell>
        <mxCell id="2l-dpUpol_1fAEb8tBQ4-41" value="" style="line;strokeWidth=1;fillColor=none;align=left;verticalAlign=middle;spacingTop=-1;spacingLeft=3;spacingRight=3;rotatable=0;labelPosition=right;points=[];portConstraint=eastwest;strokeColor=inherit;" parent="2l-dpUpol_1fAEb8tBQ4-39" vertex="1">
          <mxGeometry y="52" width="160" height="8" as="geometry" />
        </mxCell>
        <mxCell id="2l-dpUpol_1fAEb8tBQ4-42" value="+ value()" style="text;strokeColor=none;fillColor=none;align=left;verticalAlign=top;spacingLeft=4;spacingRight=4;overflow=hidden;rotatable=0;points=[[0,0.5],[1,0.5]];portConstraint=eastwest;" parent="2l-dpUpol_1fAEb8tBQ4-39" vertex="1">
          <mxGeometry y="60" width="160" height="26" as="geometry" />
        </mxCell>
        <mxCell id="2l-dpUpol_1fAEb8tBQ4-53" style="edgeStyle=orthogonalEdgeStyle;rounded=0;orthogonalLoop=1;jettySize=auto;html=1;exitX=0;exitY=0.25;exitDx=0;exitDy=0;" parent="1" source="2l-dpUpol_1fAEb8tBQ4-49" edge="1">
          <mxGeometry relative="1" as="geometry">
            <mxPoint x="230" y="600" as="targetPoint" />
            <Array as="points">
              <mxPoint x="260" y="440" />
              <mxPoint x="260" y="599" />
            </Array>
          </mxGeometry>
        </mxCell>
        <mxCell id="2l-dpUpol_1fAEb8tBQ4-64" style="edgeStyle=orthogonalEdgeStyle;rounded=0;orthogonalLoop=1;jettySize=auto;html=1;exitX=0.5;exitY=0;exitDx=0;exitDy=0;endArrow=block;endFill=0;entryX=0.512;entryY=0.987;entryDx=0;entryDy=0;entryPerimeter=0;" parent="1" source="2l-dpUpol_1fAEb8tBQ4-49" target="2l-dpUpol_1fAEb8tBQ4-62" edge="1">
          <mxGeometry relative="1" as="geometry" />
        </mxCell>
        <mxCell id="2l-dpUpol_1fAEb8tBQ4-49" value="Birthday" style="swimlane;fontStyle=1;align=center;verticalAlign=top;childLayout=stackLayout;horizontal=1;startSize=26;horizontalStack=0;resizeParent=1;resizeParentMax=0;resizeLast=0;collapsible=1;marginBottom=0;" parent="1" vertex="1">
          <mxGeometry x="320" y="418" width="160" height="86" as="geometry" />
        </mxCell>
        <mxCell id="2l-dpUpol_1fAEb8tBQ4-50" value="- _value" style="text;strokeColor=none;fillColor=none;align=left;verticalAlign=top;spacingLeft=4;spacingRight=4;overflow=hidden;rotatable=0;points=[[0,0.5],[1,0.5]];portConstraint=eastwest;" parent="2l-dpUpol_1fAEb8tBQ4-49" vertex="1">
          <mxGeometry y="26" width="160" height="26" as="geometry" />
        </mxCell>
        <mxCell id="2l-dpUpol_1fAEb8tBQ4-51" value="" style="line;strokeWidth=1;fillColor=none;align=left;verticalAlign=middle;spacingTop=-1;spacingLeft=3;spacingRight=3;rotatable=0;labelPosition=right;points=[];portConstraint=eastwest;strokeColor=inherit;" parent="2l-dpUpol_1fAEb8tBQ4-49" vertex="1">
          <mxGeometry y="52" width="160" height="8" as="geometry" />
        </mxCell>
        <mxCell id="2l-dpUpol_1fAEb8tBQ4-52" value="+ value()" style="text;strokeColor=none;fillColor=none;align=left;verticalAlign=top;spacingLeft=4;spacingRight=4;overflow=hidden;rotatable=0;points=[[0,0.5],[1,0.5]];portConstraint=eastwest;" parent="2l-dpUpol_1fAEb8tBQ4-49" vertex="1">
          <mxGeometry y="60" width="160" height="26" as="geometry" />
        </mxCell>
        <mxCell id="2l-dpUpol_1fAEb8tBQ4-58" style="edgeStyle=orthogonalEdgeStyle;rounded=0;orthogonalLoop=1;jettySize=auto;html=1;exitX=1;exitY=0.5;exitDx=0;exitDy=0;entryX=1.005;entryY=0.119;entryDx=0;entryDy=0;entryPerimeter=0;" parent="1" source="2l-dpUpol_1fAEb8tBQ4-54" target="2l-dpUpol_1fAEb8tBQ4-15" edge="1">
          <mxGeometry relative="1" as="geometry" />
        </mxCell>
        <mxCell id="2l-dpUpol_1fAEb8tBQ4-67" style="edgeStyle=orthogonalEdgeStyle;rounded=0;orthogonalLoop=1;jettySize=auto;html=1;exitX=0.5;exitY=0;exitDx=0;exitDy=0;entryX=0.514;entryY=1.015;entryDx=0;entryDy=0;entryPerimeter=0;endArrow=block;endFill=0;" parent="1" source="2l-dpUpol_1fAEb8tBQ4-54" target="2l-dpUpol_1fAEb8tBQ4-62" edge="1">
          <mxGeometry relative="1" as="geometry" />
        </mxCell>
        <mxCell id="2l-dpUpol_1fAEb8tBQ4-54" value="Name" style="swimlane;fontStyle=1;align=center;verticalAlign=top;childLayout=stackLayout;horizontal=1;startSize=26;horizontalStack=0;resizeParent=1;resizeParentMax=0;resizeLast=0;collapsible=1;marginBottom=0;" parent="1" vertex="1">
          <mxGeometry x="70" y="418" width="160" height="34" as="geometry" />
        </mxCell>
        <mxCell id="2l-dpUpol_1fAEb8tBQ4-56" value="" style="line;strokeWidth=1;fillColor=none;align=left;verticalAlign=middle;spacingTop=-1;spacingLeft=3;spacingRight=3;rotatable=0;labelPosition=right;points=[];portConstraint=eastwest;strokeColor=inherit;" parent="2l-dpUpol_1fAEb8tBQ4-54" vertex="1">
          <mxGeometry y="26" width="160" height="8" as="geometry" />
        </mxCell>
        <mxCell id="2l-dpUpol_1fAEb8tBQ4-59" value="Field" style="swimlane;fontStyle=1;align=center;verticalAlign=top;childLayout=stackLayout;horizontal=1;startSize=26;horizontalStack=0;resizeParent=1;resizeParentMax=0;resizeLast=0;collapsible=1;marginBottom=0;" parent="1" vertex="1">
          <mxGeometry x="190" y="240" width="160" height="120" as="geometry" />
        </mxCell>
        <mxCell id="2l-dpUpol_1fAEb8tBQ4-60" value="- _value&#xa;+ value&#xa;" style="text;strokeColor=none;fillColor=none;align=left;verticalAlign=top;spacingLeft=4;spacingRight=4;overflow=hidden;rotatable=0;points=[[0,0.5],[1,0.5]];portConstraint=eastwest;" parent="2l-dpUpol_1fAEb8tBQ4-59" vertex="1">
          <mxGeometry y="26" width="160" height="34" as="geometry" />
        </mxCell>
        <mxCell id="2l-dpUpol_1fAEb8tBQ4-61" value="" style="line;strokeWidth=1;fillColor=none;align=left;verticalAlign=middle;spacingTop=-1;spacingLeft=3;spacingRight=3;rotatable=0;labelPosition=right;points=[];portConstraint=eastwest;strokeColor=inherit;" parent="2l-dpUpol_1fAEb8tBQ4-59" vertex="1">
          <mxGeometry y="60" width="160" height="8" as="geometry" />
        </mxCell>
        <mxCell id="2l-dpUpol_1fAEb8tBQ4-62" value="- __init__()&#xa;+ value(): setter&#xa;+ value(): getter" style="text;strokeColor=none;fillColor=none;align=left;verticalAlign=top;spacingLeft=4;spacingRight=4;overflow=hidden;rotatable=0;points=[[0,0.5],[1,0.5]];portConstraint=eastwest;" parent="2l-dpUpol_1fAEb8tBQ4-59" vertex="1">
          <mxGeometry y="68" width="160" height="52" as="geometry" />
        </mxCell>
        <mxCell id="2l-dpUpol_1fAEb8tBQ4-70" style="edgeStyle=orthogonalEdgeStyle;rounded=0;orthogonalLoop=1;jettySize=auto;html=1;exitX=0;exitY=0.5;exitDx=0;exitDy=0;entryX=1;entryY=0.5;entryDx=0;entryDy=0;endArrow=classic;endFill=1;" parent="1" source="2l-dpUpol_1fAEb8tBQ4-15" target="2l-dpUpol_1fAEb8tBQ4-3" edge="1">
          <mxGeometry relative="1" as="geometry" />
        </mxCell>
        <mxCell id="2l-dpUpol_1fAEb8tBQ4-81" style="edgeStyle=orthogonalEdgeStyle;rounded=0;orthogonalLoop=1;jettySize=auto;html=1;exitX=1.005;exitY=0.115;exitDx=0;exitDy=0;entryX=-0.021;entryY=0.912;entryDx=0;entryDy=0;entryPerimeter=0;endArrow=classic;endFill=1;exitPerimeter=0;" parent="1" source="2l-dpUpol_1fAEb8tBQ4-71" target="2l-dpUpol_1fAEb8tBQ4-76" edge="1">
          <mxGeometry relative="1" as="geometry" />
        </mxCell>
        <mxCell id="2l-dpUpol_1fAEb8tBQ4-71" value="Note" style="swimlane;fontStyle=1;align=center;verticalAlign=top;childLayout=stackLayout;horizontal=1;startSize=26;horizontalStack=0;resizeParent=1;resizeParentMax=0;resizeLast=0;collapsible=1;marginBottom=0;" parent="1" vertex="1">
          <mxGeometry x="-590" y="510" width="160" height="104" as="geometry" />
        </mxCell>
        <mxCell id="2l-dpUpol_1fAEb8tBQ4-72" value="+ note_text&#xa;+ note_tags" style="text;strokeColor=none;fillColor=none;align=left;verticalAlign=top;spacingLeft=4;spacingRight=4;overflow=hidden;rotatable=0;points=[[0,0.5],[1,0.5]];portConstraint=eastwest;" parent="2l-dpUpol_1fAEb8tBQ4-71" vertex="1">
          <mxGeometry y="26" width="160" height="44" as="geometry" />
        </mxCell>
        <mxCell id="2l-dpUpol_1fAEb8tBQ4-73" value="" style="line;strokeWidth=1;fillColor=none;align=left;verticalAlign=middle;spacingTop=-1;spacingLeft=3;spacingRight=3;rotatable=0;labelPosition=right;points=[];portConstraint=eastwest;strokeColor=inherit;" parent="2l-dpUpol_1fAEb8tBQ4-71" vertex="1">
          <mxGeometry y="70" width="160" height="8" as="geometry" />
        </mxCell>
        <mxCell id="2l-dpUpol_1fAEb8tBQ4-74" value="- __init__()" style="text;strokeColor=none;fillColor=none;align=left;verticalAlign=top;spacingLeft=4;spacingRight=4;overflow=hidden;rotatable=0;points=[[0,0.5],[1,0.5]];portConstraint=eastwest;" parent="2l-dpUpol_1fAEb8tBQ4-71" vertex="1">
          <mxGeometry y="78" width="160" height="26" as="geometry" />
        </mxCell>
        <mxCell id="2l-dpUpol_1fAEb8tBQ4-82" style="edgeStyle=orthogonalEdgeStyle;rounded=0;orthogonalLoop=1;jettySize=auto;html=1;endArrow=classic;endFill=1;" parent="1" source="2l-dpUpol_1fAEb8tBQ4-75" target="2l-dpUpol_1fAEb8tBQ4-80" edge="1">
          <mxGeometry relative="1" as="geometry" />
        </mxCell>
        <mxCell id="2l-dpUpol_1fAEb8tBQ4-75" value="Notes" style="swimlane;fontStyle=1;align=center;verticalAlign=top;childLayout=stackLayout;horizontal=1;startSize=26;horizontalStack=0;resizeParent=1;resizeParentMax=0;resizeLast=0;collapsible=1;marginBottom=0;" parent="1" vertex="1">
          <mxGeometry x="-380" y="470" width="160" height="260" as="geometry" />
        </mxCell>
        <mxCell id="2l-dpUpol_1fAEb8tBQ4-76" value="+ notes_iter&#xa;+ notes" style="text;strokeColor=none;fillColor=none;align=left;verticalAlign=top;spacingLeft=4;spacingRight=4;overflow=hidden;rotatable=0;points=[[0,0.5],[1,0.5]];portConstraint=eastwest;" parent="2l-dpUpol_1fAEb8tBQ4-75" vertex="1">
          <mxGeometry y="26" width="160" height="34" as="geometry" />
        </mxCell>
        <mxCell id="2l-dpUpol_1fAEb8tBQ4-77" value="" style="line;strokeWidth=1;fillColor=none;align=left;verticalAlign=middle;spacingTop=-1;spacingLeft=3;spacingRight=3;rotatable=0;labelPosition=right;points=[];portConstraint=eastwest;strokeColor=inherit;" parent="2l-dpUpol_1fAEb8tBQ4-75" vertex="1">
          <mxGeometry y="60" width="160" height="8" as="geometry" />
        </mxCell>
        <mxCell id="2l-dpUpol_1fAEb8tBQ4-78" value="- __init__()&#xa;+ add_note()&#xa;+ delete_note()&#xa;+ get_notes()&#xa;+ add_tags()&#xa;+ note_exist_by_id()&#xa;+ edit_note()&#xa;+ search_notes()&#xa;+ search_notes_by_tags()&#xa;+ sort_notes()&#xa;+ save_notes_to_file()&#xa;+ load_notes_from_file()" style="text;strokeColor=none;fillColor=none;align=left;verticalAlign=top;spacingLeft=4;spacingRight=4;overflow=hidden;rotatable=0;points=[[0,0.5],[1,0.5]];portConstraint=eastwest;" parent="2l-dpUpol_1fAEb8tBQ4-75" vertex="1">
          <mxGeometry y="68" width="160" height="192" as="geometry" />
        </mxCell>
        <mxCell id="2l-dpUpol_1fAEb8tBQ4-80" value="pickle" style="shape=folder;fontStyle=1;spacingTop=10;tabWidth=40;tabHeight=14;tabPosition=left;html=1;" parent="1" vertex="1">
          <mxGeometry x="-230" y="280" width="70" height="50" as="geometry" />
        </mxCell>
      </root>
    </mxGraphModel>
  </diagram>
</mxfile>
